<mxfile host="65bd71144e">
    <diagram id="mrV6rUS3b1bJGKDFEjHn" name="Page-1">
        <mxGraphModel dx="711" dy="1014" grid="1" gridSize="10" guides="1" tooltips="1" connect="1" arrows="1" fold="1" page="1" pageScale="1" pageWidth="850" pageHeight="1100" math="0" shadow="0">
            <root>
                <mxCell id="0"/>
                <mxCell id="1" parent="0"/>
                <mxCell id="2" value="Data Sources" style="swimlane;whiteSpace=wrap;html=1;" vertex="1" parent="1">
                    <mxGeometry x="40" y="280" width="160" height="360" as="geometry"/>
                </mxCell>
                <mxCell id="3" value="CRMs, ERPs" style="rounded=1;whiteSpace=wrap;html=1;" vertex="1" parent="2">
                    <mxGeometry x="20" y="50" width="120" height="60" as="geometry"/>
                </mxCell>
                <mxCell id="5" value="Database" style="shape=cylinder3;whiteSpace=wrap;html=1;boundedLbl=1;backgroundOutline=1;size=15;" vertex="1" parent="2">
                    <mxGeometry x="40" y="130" width="80" height="100" as="geometry"/>
                </mxCell>
                <mxCell id="7" value="Applications ...." style="rounded=1;whiteSpace=wrap;html=1;align=center;" vertex="1" parent="2">
                    <mxGeometry x="30" y="260" width="100" height="60" as="geometry"/>
                </mxCell>
            </root>
        </mxGraphModel>
    </diagram>
</mxfile>